<svg width="42" height="42" viewBox="0 0 42 42" fill="none" xmlns="http://www.w3.org/2000/svg">
<path d="M20.9906 10.7881C15.1945 10.7857 10.5 15.4779 10.5 21.2693C10.5 25.849 13.4367 29.742 17.5266 31.1717C18.0773 31.31 17.993 30.9186 17.993 30.6514V28.835C14.8125 29.2076 14.6836 27.1029 14.4703 26.7514C14.0391 26.0154 13.0195 25.8279 13.3242 25.4764C14.0484 25.1037 14.7867 25.5701 15.6422 26.8334C16.2609 27.7498 17.468 27.5951 18.0797 27.4428C18.2133 26.892 18.4992 26.3998 18.893 26.0178C15.5977 25.4271 14.2242 23.4162 14.2242 21.0256C14.2242 19.8654 14.6062 18.799 15.3562 17.9389C14.8781 16.5209 15.4008 15.3068 15.4711 15.1264C16.8328 15.0045 18.2484 16.1014 18.3586 16.1881C19.132 15.9795 20.0156 15.8693 21.0047 15.8693C21.9984 15.8693 22.8844 15.9842 23.6648 16.1951C23.9297 15.9936 25.2422 15.0514 26.5078 15.1662C26.5758 15.3467 27.0867 16.5326 26.6367 17.9318C27.3961 18.7943 27.7828 19.8701 27.7828 21.0326C27.7828 23.4279 26.4 25.4412 23.0953 26.0225C23.3784 26.3008 23.6031 26.6328 23.7564 26.999C23.9098 27.3652 23.9886 27.7583 23.9883 28.1553V30.792C24.007 31.0029 23.9883 31.2115 24.3398 31.2115C28.4906 29.8123 31.4789 25.8912 31.4789 21.2717C31.4789 15.4779 26.782 10.7881 20.9906 10.7881Z" fill="white"/>
<rect x="1" y="1" width="40" height="40" rx="20" stroke="white" stroke-width="1.2"/>
</svg>
