<svg width="143" height="185" viewBox="0 0 143 185" fill="none" xmlns="http://www.w3.org/2000/svg">
<mask id="mask0_48_670" style="mask-type:alpha" maskUnits="userSpaceOnUse" x="-40" y="0" width="183" height="185">
<circle cx="11.3683" cy="52.3189" r="1.81755" fill="black" fill-opacity="0.3"/>
<circle cx="11.3683" cy="35.4851" r="1.81755" fill="black" fill-opacity="0.3"/>
<circle cx="11.3683" cy="18.6514" r="1.81755" fill="black" fill-opacity="0.3"/>
<circle cx="11.3683" cy="1.81755" r="1.81755" fill="black" fill-opacity="0.3"/>
<circle cx="11.3683" cy="68.6768" r="1.81755" fill="black" fill-opacity="0.3"/>
<circle cx="11.3683" cy="85.0348" r="1.81755" fill="black" fill-opacity="0.3"/>
<circle cx="11.3683" cy="101.393" r="1.81755" fill="black" fill-opacity="0.3"/>
<circle cx="11.3683" cy="117.751" r="1.81755" fill="black" fill-opacity="0.3"/>
<circle cx="11.3683" cy="134.109" r="1.81755" fill="black" fill-opacity="0.3"/>
<circle cx="11.3683" cy="150.467" r="1.81755" fill="black" fill-opacity="0.3"/>
<circle cx="11.3683" cy="166.824" r="1.81755" fill="black" fill-opacity="0.3"/>
<circle cx="11.3683" cy="183.182" r="1.81755" fill="black" fill-opacity="0.3"/>
<circle cx="27.7258" cy="52.3189" r="1.81755" fill="black" fill-opacity="0.3"/>
<circle cx="27.7258" cy="35.4851" r="1.81755" fill="black" fill-opacity="0.3"/>
<circle cx="27.7258" cy="18.6514" r="1.81755" fill="black" fill-opacity="0.3"/>
<circle cx="27.7258" cy="1.81755" r="1.81755" fill="black" fill-opacity="0.3"/>
<circle cx="27.7258" cy="68.6768" r="1.81755" fill="black" fill-opacity="0.3"/>
<circle cx="27.7258" cy="85.0348" r="1.81755" fill="black" fill-opacity="0.3"/>
<circle cx="27.7258" cy="101.393" r="1.81755" fill="black" fill-opacity="0.3"/>
<circle cx="27.7258" cy="117.751" r="1.81755" fill="black" fill-opacity="0.3"/>
<circle cx="27.7258" cy="134.109" r="1.81755" fill="black" fill-opacity="0.3"/>
<circle cx="27.7258" cy="150.467" r="1.81755" fill="black" fill-opacity="0.3"/>
<circle cx="27.7258" cy="166.824" r="1.81755" fill="black" fill-opacity="0.3"/>
<circle cx="27.7258" cy="183.182" r="1.81755" fill="black" fill-opacity="0.3"/>
<circle cx="44.0832" cy="52.3189" r="1.81755" fill="black" fill-opacity="0.3"/>
<circle cx="44.0832" cy="35.4851" r="1.81755" fill="black" fill-opacity="0.3"/>
<circle cx="44.0832" cy="18.6514" r="1.81755" fill="black" fill-opacity="0.3"/>
<circle cx="44.0832" cy="1.81755" r="1.81755" fill="black" fill-opacity="0.3"/>
<circle cx="44.0832" cy="68.6768" r="1.81755" fill="black" fill-opacity="0.3"/>
<circle cx="44.0832" cy="85.0348" r="1.81755" fill="black" fill-opacity="0.3"/>
<circle cx="44.0832" cy="101.393" r="1.81755" fill="black" fill-opacity="0.3"/>
<circle cx="44.0832" cy="117.751" r="1.81755" fill="black" fill-opacity="0.3"/>
<circle cx="44.0832" cy="134.109" r="1.81755" fill="black" fill-opacity="0.3"/>
<circle cx="44.0832" cy="150.467" r="1.81755" fill="black" fill-opacity="0.3"/>
<circle cx="44.0832" cy="166.824" r="1.81755" fill="black" fill-opacity="0.3"/>
<circle cx="44.0832" cy="183.182" r="1.81755" fill="black" fill-opacity="0.3"/>
<circle cx="60.4396" cy="52.3189" r="1.81755" fill="black" fill-opacity="0.3"/>
<circle cx="60.4396" cy="35.4851" r="1.81755" fill="black" fill-opacity="0.3"/>
<circle cx="60.4396" cy="18.6514" r="1.81755" fill="black" fill-opacity="0.3"/>
<circle cx="60.4396" cy="1.81755" r="1.81755" fill="black" fill-opacity="0.3"/>
<circle cx="60.4396" cy="68.6768" r="1.81755" fill="black" fill-opacity="0.3"/>
<circle cx="60.4396" cy="85.0348" r="1.81755" fill="black" fill-opacity="0.3"/>
<circle cx="60.4396" cy="101.393" r="1.81755" fill="black" fill-opacity="0.3"/>
<circle cx="60.4396" cy="117.751" r="1.81755" fill="black" fill-opacity="0.3"/>
<circle cx="60.4396" cy="134.109" r="1.81755" fill="black" fill-opacity="0.3"/>
<circle cx="60.4396" cy="150.467" r="1.81755" fill="black" fill-opacity="0.3"/>
<circle cx="60.4396" cy="166.824" r="1.81755" fill="black" fill-opacity="0.3"/>
<circle cx="60.4396" cy="183.182" r="1.81755" fill="black" fill-opacity="0.3"/>
<circle cx="76.799" cy="52.3189" r="1.81755" fill="black" fill-opacity="0.3"/>
<circle cx="76.799" cy="35.4851" r="1.81755" fill="black" fill-opacity="0.3"/>
<circle cx="76.799" cy="18.6514" r="1.81755" fill="black" fill-opacity="0.3"/>
<circle cx="76.799" cy="1.81755" r="1.81755" fill="black" fill-opacity="0.3"/>
<circle cx="76.799" cy="68.6768" r="1.81755" fill="black" fill-opacity="0.3"/>
<circle cx="76.799" cy="85.0348" r="1.81755" fill="black" fill-opacity="0.3"/>
<circle cx="76.799" cy="101.393" r="1.81755" fill="black" fill-opacity="0.3"/>
<circle cx="76.799" cy="117.751" r="1.81755" fill="black" fill-opacity="0.3"/>
<circle cx="76.799" cy="134.109" r="1.81755" fill="black" fill-opacity="0.3"/>
<circle cx="76.799" cy="150.467" r="1.81755" fill="black" fill-opacity="0.3"/>
<circle cx="76.799" cy="166.824" r="1.81755" fill="black" fill-opacity="0.3"/>
<circle cx="76.799" cy="183.182" r="1.81755" fill="black" fill-opacity="0.3"/>
<circle cx="93.1554" cy="52.3189" r="1.81755" fill="black" fill-opacity="0.3"/>
<circle cx="93.1554" cy="35.4851" r="1.81755" fill="black" fill-opacity="0.3"/>
<circle cx="93.1554" cy="18.6514" r="1.81755" fill="black" fill-opacity="0.3"/>
<circle cx="93.1554" cy="1.81755" r="1.81755" fill="black" fill-opacity="0.3"/>
<circle cx="108.867" cy="52.3189" r="1.81755" fill="black" fill-opacity="0.3"/>
<circle cx="108.867" cy="35.4851" r="1.81755" fill="black" fill-opacity="0.3"/>
<circle cx="108.867" cy="18.6514" r="1.81755" fill="black" fill-opacity="0.3"/>
<circle cx="108.867" cy="1.81755" r="1.81755" fill="black" fill-opacity="0.3"/>
<circle cx="124.579" cy="52.3189" r="1.81755" fill="black" fill-opacity="0.3"/>
<circle cx="124.579" cy="35.4851" r="1.81755" fill="black" fill-opacity="0.3"/>
<circle cx="124.579" cy="18.6514" r="1.81755" fill="black" fill-opacity="0.3"/>
<circle cx="124.579" cy="1.81755" r="1.81755" fill="black" fill-opacity="0.3"/>
<circle cx="140.29" cy="52.3189" r="1.81755" fill="black" fill-opacity="0.3"/>
<circle cx="140.29" cy="35.4851" r="1.81755" fill="black" fill-opacity="0.3"/>
<circle cx="140.29" cy="18.6514" r="1.81755" fill="black" fill-opacity="0.3"/>
<circle cx="140.29" cy="1.81755" r="1.81755" fill="black" fill-opacity="0.3"/>
<circle cx="93.1554" cy="68.6768" r="1.81755" fill="black" fill-opacity="0.3"/>
<circle cx="108.867" cy="68.6768" r="1.81755" fill="black" fill-opacity="0.3"/>
<circle cx="124.579" cy="68.6768" r="1.81755" fill="black" fill-opacity="0.3"/>
<circle cx="140.29" cy="68.6768" r="1.81755" fill="black" fill-opacity="0.3"/>
<circle cx="93.1554" cy="85.0348" r="1.81755" fill="black" fill-opacity="0.3"/>
<circle cx="108.867" cy="85.0348" r="1.81755" fill="black" fill-opacity="0.3"/>
<circle cx="124.579" cy="85.0348" r="1.81755" fill="black" fill-opacity="0.3"/>
<circle cx="140.29" cy="85.0348" r="1.81755" fill="black" fill-opacity="0.3"/>
<circle cx="93.1554" cy="101.393" r="1.81755" fill="black" fill-opacity="0.3"/>
<circle cx="108.867" cy="101.393" r="1.81755" fill="black" fill-opacity="0.3"/>
<circle cx="124.579" cy="101.393" r="1.81755" fill="black" fill-opacity="0.3"/>
<circle cx="140.29" cy="101.393" r="1.81755" fill="black" fill-opacity="0.3"/>
<circle cx="93.1554" cy="117.751" r="1.81755" fill="black" fill-opacity="0.3"/>
<circle cx="108.867" cy="117.751" r="1.81755" fill="black" fill-opacity="0.3"/>
<circle cx="124.579" cy="117.751" r="1.81755" fill="black" fill-opacity="0.3"/>
<circle cx="140.29" cy="117.751" r="1.81755" fill="black" fill-opacity="0.3"/>
<circle cx="93.1554" cy="134.109" r="1.81755" fill="black" fill-opacity="0.3"/>
<circle cx="108.867" cy="134.109" r="1.81755" fill="black" fill-opacity="0.3"/>
<circle cx="124.579" cy="134.109" r="1.81755" fill="black" fill-opacity="0.3"/>
<circle cx="140.29" cy="134.109" r="1.81755" fill="black" fill-opacity="0.3"/>
<circle cx="93.1554" cy="150.467" r="1.81755" fill="black" fill-opacity="0.3"/>
<circle cx="108.867" cy="150.467" r="1.81755" fill="black" fill-opacity="0.3"/>
<circle cx="124.579" cy="150.467" r="1.81755" fill="black" fill-opacity="0.3"/>
<circle cx="140.29" cy="150.467" r="1.81755" fill="black" fill-opacity="0.3"/>
<circle cx="93.1554" cy="166.824" r="1.81755" fill="black" fill-opacity="0.3"/>
<circle cx="108.867" cy="166.824" r="1.81755" fill="black" fill-opacity="0.3"/>
<circle cx="124.579" cy="166.824" r="1.81755" fill="black" fill-opacity="0.3"/>
<circle cx="140.29" cy="166.824" r="1.81755" fill="black" fill-opacity="0.3"/>
<circle cx="93.1554" cy="183.182" r="1.81755" fill="black" fill-opacity="0.3"/>
<circle cx="108.867" cy="183.182" r="1.81755" fill="black" fill-opacity="0.3"/>
<circle cx="124.579" cy="183.182" r="1.81755" fill="black" fill-opacity="0.3"/>
<circle cx="140.29" cy="183.182" r="1.81755" fill="black" fill-opacity="0.3"/>
</mask>
<g mask="url(#mask0_48_670)">
<circle cx="50.6817" cy="91.9591" r="91.9591" fill="black" fill-opacity="0.3"/>
</g>
</svg>
