<svg width="42" height="42" viewBox="0 0 42 42" fill="none" xmlns="http://www.w3.org/2000/svg">
<path d="M20.999 16.377C19.7726 16.377 18.5965 16.8641 17.7293 17.7313C16.8622 18.5985 16.375 19.7746 16.375 21.001C16.375 22.2273 16.8622 23.4034 17.7293 24.2706C18.5965 25.1378 19.7726 25.625 20.999 25.625C22.2254 25.625 23.4015 25.1378 24.2687 24.2706C25.1358 23.4034 25.623 22.2273 25.623 21.001C25.623 19.7746 25.1358 18.5985 24.2687 17.7313C23.4015 16.8641 22.2254 16.377 20.999 16.377ZM20.999 24.004C20.2023 24.004 19.4382 23.6875 18.8749 23.1241C18.3115 22.5607 17.995 21.7967 17.995 21C17.995 20.2032 18.3115 19.4392 18.8749 18.8758C19.4382 18.3124 20.2023 17.996 20.999 17.996C21.7957 17.996 22.5598 18.3124 23.1231 18.8758C23.6865 19.4392 24.003 20.2032 24.003 21C24.003 21.7967 23.6865 22.5607 23.1231 23.1241C22.5598 23.6875 21.7957 24.004 20.999 24.004Z" fill="white"/>
<path d="M25.8055 17.2849C26.4009 17.2849 26.8835 16.8023 26.8835 16.2069C26.8835 15.6115 26.4009 15.1289 25.8055 15.1289C25.2102 15.1289 24.7275 15.6115 24.7275 16.2069C24.7275 16.8023 25.2102 17.2849 25.8055 17.2849Z" fill="white"/>
<path d="M29.533 15.1109C29.3015 14.5131 28.9477 13.9702 28.4943 13.5169C28.0409 13.0637 27.4979 12.7102 26.9 12.4789C26.2003 12.2162 25.4611 12.0742 24.714 12.0589C23.751 12.0169 23.446 12.0049 21.004 12.0049C18.562 12.0049 18.249 12.0049 17.294 12.0589C16.5473 12.0734 15.8087 12.2155 15.11 12.4789C14.5119 12.7099 13.9687 13.0634 13.5153 13.5166C13.0619 13.9699 12.7082 14.5129 12.477 15.1109C12.2143 15.8105 12.0726 16.5497 12.058 17.2969C12.015 18.2589 12.002 18.5639 12.002 21.0069C12.002 23.4489 12.002 23.7599 12.058 24.7169C12.073 25.4649 12.214 26.2029 12.477 26.9039C12.7088 27.5016 13.0628 28.0445 13.5164 28.4977C13.9699 28.9509 14.513 29.3045 15.111 29.5359C15.8084 29.8091 16.5473 29.9613 17.296 29.9859C18.259 30.0279 18.564 30.0409 21.006 30.0409C23.448 30.0409 23.761 30.0409 24.716 29.9859C25.4631 29.9707 26.2022 29.829 26.902 29.5669C27.4997 29.3351 28.0426 28.9812 28.4959 28.5279C28.9493 28.0745 29.3031 27.5316 29.535 26.9339C29.798 26.2339 29.939 25.4959 29.954 24.7479C29.997 23.7859 30.01 23.4809 30.01 21.0379C30.01 18.5949 30.01 18.2849 29.954 17.3279C29.9423 16.5702 29.7999 15.8201 29.533 15.1109ZM28.315 24.6429C28.3085 25.2192 28.2033 25.7901 28.004 26.3309C27.8538 26.7198 27.6239 27.0729 27.329 27.3676C27.0342 27.6622 26.6809 27.8919 26.292 28.0419C25.7572 28.2403 25.1923 28.3455 24.622 28.3529C23.672 28.3969 23.404 28.4079 20.968 28.4079C18.53 28.4079 18.281 28.4079 17.313 28.3529C16.7429 28.3459 16.1783 28.2407 15.644 28.0419C15.2536 27.8929 14.899 27.6636 14.6028 27.3688C14.3067 27.0741 14.0758 26.7205 13.925 26.3309C13.7284 25.7959 13.6233 25.2317 13.614 24.6619C13.571 23.7119 13.561 23.4439 13.561 21.0079C13.561 18.5709 13.561 18.3219 13.614 17.3529C13.6204 16.7769 13.7256 16.2063 13.925 15.6659C14.23 14.8769 14.855 14.2559 15.644 13.9539C16.1785 13.756 16.743 13.6508 17.313 13.6429C18.264 13.5999 18.531 13.5879 20.968 13.5879C23.405 13.5879 23.655 13.5879 24.622 13.6429C25.1924 13.6497 25.7573 13.755 26.292 13.9539C26.6809 14.1042 27.0341 14.3341 27.3289 14.6289C27.6238 14.9237 27.8537 15.277 28.004 15.6659C28.2005 16.2008 28.3056 16.765 28.315 17.3349C28.358 18.2859 28.369 18.5529 28.369 20.9899C28.369 23.4259 28.369 23.6879 28.326 24.6439H28.315V24.6429Z" fill="white"/>
<rect x="1" y="1" width="40" height="40" rx="20" stroke="white" stroke-width="1.2"/>
</svg>
