<svg width="42" height="42" viewBox="0 0 42 42" fill="none" xmlns="http://www.w3.org/2000/svg">
<path d="M31.5005 31.5C32.1966 31.5 32.8643 31.2234 33.3566 30.7312C33.8489 30.2389 34.1255 29.5712 34.1255 28.875V22.4647C34.1255 21.7686 33.8489 21.1009 33.3566 20.6086C32.8643 20.1163 32.1966 19.8398 31.5005 19.8398H27.857C27.857 18.9184 27.9121 17.9944 28.0197 17.073C28.1825 16.0965 28.4555 15.2276 28.8335 14.469C29.2141 13.7078 29.7023 13.1119 30.3008 12.6761C30.8967 12.1879 31.6553 11.9438 32.5793 11.9438V7.875C31.0595 7.875 29.7312 8.2005 28.5893 8.8515C27.4574 9.4959 26.4842 10.3857 25.7412 11.4555C24.9955 12.635 24.4459 13.9275 24.1137 15.2828C23.779 16.7784 23.6152 18.3072 23.6255 19.8398V28.875C23.6255 29.5712 23.902 30.2389 24.3943 30.7312C24.8866 31.2234 25.5543 31.5 26.2505 31.5H31.5005ZM15.7505 31.5C16.4466 31.5 17.1143 31.2234 17.6066 30.7312C18.0989 30.2389 18.3755 29.5712 18.3755 28.875V22.4647C18.3755 21.7686 18.0989 21.1009 17.6066 20.6086C17.1143 20.1163 16.4466 19.8398 15.7505 19.8398H12.107C12.107 18.9184 12.1621 17.9944 12.2697 17.073C12.4325 16.0965 12.7055 15.2276 13.0835 14.469C13.4641 13.7078 13.9523 13.1119 14.5508 12.6761C15.1467 12.1879 15.9053 11.9438 16.8293 11.9438V7.875C15.3095 7.875 13.9812 8.2005 12.8393 8.8515C11.7074 9.4959 10.7342 10.3857 9.9912 11.4555C9.24551 12.635 8.69588 13.9275 8.36371 15.2828C8.02898 16.7784 7.86518 18.3072 7.87545 19.8398V28.875C7.87545 29.5712 8.15202 30.2389 8.6443 30.7312C9.13658 31.2234 9.80426 31.5 10.5005 31.5H15.7505Z" fill="black" fill-opacity="0.2"/>
</svg>
