<svg width="42" height="42" viewBox="0 0 42 42" fill="none" xmlns="http://www.w3.org/2000/svg">
<path d="M10.4995 10.5C9.80335 10.5 9.13567 10.7766 8.64339 11.2688C8.15111 11.7611 7.87454 12.4288 7.87454 13.125V19.5353C7.87454 20.2314 8.15111 20.8991 8.64339 21.3914C9.13567 21.8837 9.80335 22.1602 10.4995 22.1602H14.143C14.143 23.0816 14.0879 24.0056 13.9803 24.927C13.8175 25.9035 13.5445 26.7724 13.1665 27.531C12.7859 28.2922 12.2977 28.8881 11.6992 29.3239C11.1033 29.8121 10.3447 30.0562 9.42067 30.0562V34.125C10.9405 34.125 12.2688 33.7995 13.4107 33.1485C14.5426 32.5041 15.5158 31.6143 16.2588 30.5445C17.0045 29.365 17.5541 28.0725 17.8863 26.7172C18.221 25.2216 18.3848 23.6928 18.3745 22.1602V13.125C18.3745 12.4288 18.098 11.7611 17.6057 11.2688C17.1134 10.7766 16.4457 10.5 15.7495 10.5H10.4995ZM26.2495 10.5C25.5534 10.5 24.8857 10.7766 24.3934 11.2688C23.9011 11.7611 23.6245 12.4288 23.6245 13.125V19.5353C23.6245 20.2314 23.9011 20.8991 24.3934 21.3914C24.8857 21.8837 25.5534 22.1602 26.2495 22.1602H29.893C29.893 23.0816 29.8379 24.0056 29.7303 24.927C29.5675 25.9035 29.2945 26.7724 28.9165 27.531C28.5359 28.2922 28.0477 28.8881 27.4492 29.3239C26.8533 29.8121 26.0947 30.0562 25.1707 30.0562V34.125C26.6905 34.125 28.0188 33.7995 29.1607 33.1485C30.2926 32.5041 31.2658 31.6143 32.0088 30.5445C32.7545 29.365 33.3041 28.0725 33.6363 26.7172C33.971 25.2216 34.1348 23.6928 34.1245 22.1602V13.125C34.1245 12.4288 33.848 11.7611 33.3557 11.2688C32.8634 10.7766 32.1957 10.5 31.4995 10.5H26.2495Z" fill="black" fill-opacity="0.2"/>
</svg>
