<svg width="42" height="42" viewBox="0 0 42 42" fill="none" xmlns="http://www.w3.org/2000/svg">
<path d="M31.5 20.9345C31.5 20.8829 31.5 20.8243 31.4977 20.7563C31.4953 20.5665 31.4906 20.3532 31.4859 20.1259C31.4672 19.472 31.4344 18.8204 31.3828 18.2063C31.3125 17.3603 31.2094 16.6548 31.0687 16.1251C30.9204 15.5723 30.6295 15.0682 30.2252 14.6631C29.8209 14.2579 29.3173 13.966 28.7648 13.8165C28.1016 13.6384 26.8031 13.5282 24.975 13.4603C24.1055 13.4274 23.175 13.4063 22.2445 13.3946C21.9187 13.3899 21.6164 13.3876 21.3445 13.3853H20.6555C20.3836 13.3876 20.0813 13.3899 19.7555 13.3946C18.825 13.4063 17.8945 13.4274 17.025 13.4603C15.1969 13.5306 13.8961 13.6407 13.2352 13.8165C12.6825 13.9657 12.1788 14.2574 11.7744 14.6626C11.37 15.0678 11.0793 15.5721 10.9313 16.1251C10.7883 16.6548 10.6875 17.3603 10.6172 18.2063C10.5656 18.8204 10.5328 19.472 10.5141 20.1259C10.507 20.3532 10.5047 20.5665 10.5023 20.7563C10.5023 20.8243 10.5 20.8829 10.5 20.9345V21.0657C10.5 21.1173 10.5 21.1759 10.5023 21.2438C10.5047 21.4337 10.5094 21.647 10.5141 21.8743C10.5328 22.5282 10.5656 23.1798 10.6172 23.7938C10.6875 24.6399 10.7906 25.3454 10.9313 25.8751C11.2313 26.9978 12.1125 27.8837 13.2352 28.1837C13.8961 28.3618 15.1969 28.472 17.025 28.5399C17.8945 28.5728 18.825 28.5938 19.7555 28.6056C20.0813 28.6103 20.3836 28.6126 20.6555 28.6149H21.3445C21.6164 28.6126 21.9187 28.6103 22.2445 28.6056C23.175 28.5938 24.1055 28.5728 24.975 28.5399C26.8031 28.4696 28.1039 28.3595 28.7648 28.1837C29.8875 27.8837 30.7687 27.0001 31.0687 25.8751C31.2117 25.3454 31.3125 24.6399 31.3828 23.7938C31.4344 23.1798 31.4672 22.5282 31.4859 21.8743C31.493 21.647 31.4953 21.4337 31.4977 21.2438C31.4977 21.1759 31.5 21.1173 31.5 21.0657V20.9345ZM29.8125 21.0563C29.8125 21.1056 29.8125 21.1595 29.8102 21.2228C29.8078 21.4056 29.8031 21.6071 29.7984 21.8251C29.782 22.4485 29.7492 23.072 29.7 23.6509C29.6367 24.4056 29.5477 25.0243 29.4375 25.4392C29.2922 25.9806 28.8656 26.4095 28.3266 26.5524C27.8344 26.6837 26.5945 26.7892 24.9094 26.8524C24.0562 26.8853 23.1375 26.9063 22.2211 26.9181C21.9 26.9228 21.6023 26.9251 21.3352 26.9251H20.6648L19.7789 26.9181C18.8625 26.9063 17.9461 26.8853 17.0906 26.8524C15.4055 26.7868 14.1633 26.6837 13.6734 26.5524C13.1344 26.4071 12.7078 25.9806 12.5625 25.4392C12.4523 25.0243 12.3633 24.4056 12.3 23.6509C12.2508 23.072 12.2203 22.4485 12.2016 21.8251C12.1945 21.6071 12.1922 21.4032 12.1898 21.2228C12.1898 21.1595 12.1875 21.1032 12.1875 21.0563V20.9438C12.1875 20.8946 12.1875 20.8407 12.1898 20.7774C12.1922 20.5946 12.1969 20.3931 12.2016 20.1751C12.218 19.5517 12.2508 18.9282 12.3 18.3493C12.3633 17.5946 12.4523 16.9759 12.5625 16.561C12.7078 16.0196 13.1344 15.5907 13.6734 15.4478C14.1656 15.3165 15.4055 15.211 17.0906 15.1478C17.9438 15.1149 18.8625 15.0938 19.7789 15.0821C20.1 15.0774 20.3977 15.0751 20.6648 15.0751H21.3352L22.2211 15.0821C23.1375 15.0938 24.0539 15.1149 24.9094 15.1478C26.5945 15.2134 27.8367 15.3165 28.3266 15.4478C28.8656 15.5931 29.2922 16.0196 29.4375 16.561C29.5477 16.9759 29.6367 17.5946 29.7 18.3493C29.7492 18.9282 29.7797 19.5517 29.7984 20.1751C29.8055 20.3931 29.8078 20.597 29.8102 20.7774C29.8102 20.8407 29.8125 20.897 29.8125 20.9438V21.0563ZM18.9141 24.1407L24.3516 20.9767L18.9141 17.8595V24.1407Z" fill="white"/>
<rect x="1" y="1" width="40" height="40" rx="20" stroke="white" stroke-width="1.2"/>
</svg>
